<svg width="21px" height="26px" viewBox="0 0 21 26" version="1.1" xmlns="http://www.w3.org/2000/svg" xmlns:xlink="http://www.w3.org/1999/xlink">
    <title>481C3C67-92DD-4DE2-9A72-959EA381A55F</title>
    <desc>Created with sketchtool.</desc>
    <defs></defs>
    <g id="Page-1" stroke="none" stroke-width="1" fill="none" fill-rule="evenodd">
        <g id="Pfaff-Guaranteed-Trade-Overlay-3g" transform="translate(-1117.000000, -429.000000)" fill="#FFFFFF" fill-rule="nonzero">
            <g id="Overlay" transform="translate(260.000000, 0.000000)">
                <g id="Download-Android-Copy-2" transform="translate(844.000000, 419.000000)">
                    <path d="M17.2,29.4700471 C17.2,30.1000471 17.62,30.5200471 18.25,30.5200471 L19.3,30.5200471 L19.3,34.1950471 C19.3,35.0350471 20.035,35.7700471 20.875,35.7700471 C21.715,35.7700471 22.45,35.0350471 22.45,34.1950471 L22.45,30.5200471 L24.55,30.5200471 L24.55,34.1950471 C24.55,35.0350471 25.285,35.7700471 26.125,35.7700471 C26.965,35.7700471 27.7,35.0350471 27.7,34.1950471 L27.7,30.5200471 L28.75,30.5200471 C29.38,30.5200471 29.8,30.1000471 29.8,29.4700471 L29.8,18.9700471 L17.2,18.9700471 L17.2,29.4700471 Z M14.575,18.9700471 C13.735,18.9700471 13,19.7050882 13,20.5450471 L13,27.8950471 C13,28.7350471 13.735,29.4700471 14.575,29.4700471 C15.415,29.4700471 16.15,28.7350471 16.15,27.8950471 L16.15,20.5450471 C16.15,19.7050471 15.415,18.9700471 14.575,18.9700471 Z M32.425,18.9700471 C31.585,18.9700471 30.85,19.7050882 30.85,20.5450471 L30.85,27.8950471 C30.85,28.7350471 31.585,29.4700471 32.425,29.4700471 C33.265,29.4700471 34,28.7350471 34,27.8950471 L34,20.5450471 C34,19.7050471 33.265,18.9700471 32.425,18.9700471 Z M27.175,12.8800471 L28.54,11.5150471 C28.75,11.3050471 28.75,10.9900471 28.54,10.7800471 C28.3299588,10.5700059 28.015,10.5700059 27.8049588,10.7800471 L26.2299588,12.3550471 C25.4949588,11.8300471 24.5499588,11.6200059 23.4999588,11.6200059 C22.4499588,11.6200059 21.5049588,11.8300471 20.6649588,12.2500059 L19.1949588,10.6750059 C18.9849588,10.5700059 18.5649588,10.5700059 18.3549588,10.6750059 C18.2499588,10.8850471 18.2499588,11.3050471 18.3549588,11.5150059 L19.7199588,12.8800059 C18.2499588,14.0350059 17.1999588,15.8199647 17.1999588,17.9199647 L29.7999588,17.9199647 C29.8,15.8200471 28.75,13.9300471 27.175,12.8800471 Z M21.4,15.8200471 L20.35,15.8200471 L20.35,14.7700471 L21.4,14.7700471 L21.4,15.8200471 Z M26.65,15.8200471 L25.6,15.8200471 L25.6,14.7700471 L26.65,14.7700471 L26.65,15.8200471 Z" id="Shape"></path>
                </g>
            </g>
        </g>
    </g>
</svg>