<svg width="22px" height="27px" viewBox="0 0 22 27" version="1.1" xmlns="http://www.w3.org/2000/svg" xmlns:xlink="http://www.w3.org/1999/xlink">
    <title>86D0FDB8-3E8A-41F1-BCAF-8EA7CC0B8660</title>
    <desc>Created with sketchtool.</desc>
    <defs></defs>
    <g id="Page-1" stroke="none" stroke-width="1" fill="none" fill-rule="evenodd">
        <g id="Pfaff-Guaranteed-Trade-Overlay-3g" transform="translate(-1060.000000, -427.000000)" fill="#FFFFFF" fill-rule="nonzero">
            <g id="Overlay" transform="translate(260.000000, 0.000000)">
                <g id="Download-Apple-Copy-2" transform="translate(788.000000, 419.000000)">
                    <path d="M31.5047497,25.5878212 C32.2312864,26.630164 33.0629259,27.2934731 34,27.5779697 C33.5893801,28.8941882 32.9417811,30.2102407 32.057535,31.5262933 C30.6994966,33.5899031 29.3463262,34.621791 27.9986875,34.621791 C27.4828542,34.621791 26.7456413,34.4532946 25.7876019,34.1166892 C24.8821692,33.7799178 24.0870945,33.6114768 23.4029308,33.6114768 C22.760587,33.6114768 22.013085,33.7854496 21.1600931,34.1326206 C20.3073778,34.4905785 19.6124273,34.6696404 19.0754628,34.6696404 C17.4750796,34.6696404 15.8904065,33.3059597 14.3217201,30.5789855 C12.7740542,27.8308801 12,25.1830649 12,22.635042 C12,20.2343842 12.5949923,18.2655328 13.7847556,16.7282666 C14.9639533,15.2122422 16.4590678,14.4540641 18.2700437,14.4540641 C19.0281112,14.4540641 19.9599855,14.6118842 21.0655006,14.9278009 C22.1605055,15.2438284 22.8868762,15.4016485 23.2450554,15.4016485 C23.7186263,15.4016485 24.4715493,15.2224759 25.5034372,14.864518 C26.5771449,14.5062835 27.4881093,14.3273876 28.2355006,14.3273876 C29.4883255,14.3273876 30.609772,14.6695247 31.5994529,15.353799 C32.1473149,15.7329434 32.6947896,16.2593976 33.2422091,16.933051 C32.4104037,17.6386225 31.8101009,18.2596692 31.4415774,18.7966337 C30.7577457,19.7862039 30.4151107,20.8762302 30.4151107,22.0659935 C30.4151107,23.3712592 30.7781577,24.5455336 31.5047497,25.5878212 Z M26.1347176,13.3798032 C25.5658351,13.9483538 24.9979482,14.3275535 24.4289551,14.5171257 C24.0391898,14.6330153 23.4919363,14.7223527 22.7864754,14.7855803 C22.8181169,13.2167833 23.2289581,11.8639447 24.0183905,10.7267881 C24.7975892,9.60014181 26.1136417,8.82105374 27.9667141,8.3891367 C27.977501,8.42077816 27.9906112,8.47869532 28.0063213,8.56283285 C28.0220313,8.64697038 28.0350862,8.70488753 28.0457071,8.73652899 C28.0457071,8.77868073 28.0485283,8.8311768 28.0532856,8.89434909 C28.0589833,8.9575767 28.0612513,9.01029404 28.0612513,9.05227982 C28.0612513,9.69462367 27.9089076,10.4107054 27.6037223,11.2003591 C27.2877502,11.9899021 26.7981926,12.7164941 26.1347176,13.3798032 Z" id="Combined-Shape"></path>
                </g>
            </g>
        </g>
    </g>
</svg>
